<?xml version="1.0" encoding="utf-8"?>
<!-- Generator: Adobe Illustrator 27.6.1, SVG Export Plug-In . SVG Version: 6.00 Build 0)  -->
<svg version="1.1" id="Layer_1" xmlns="http://www.w3.org/2000/svg" xmlns:xlink="http://www.w3.org/1999/xlink" x="0px" y="0px"
	 viewBox="0 0 266.4 227.7" style="enable-background:new 0 0 266.4 227.7;" xml:space="preserve">
<path d="M243,210L146.4,0H98.9l14.5,32l-40.2,87.5c-0.2,0.1-0.3,0.2-0.4,0.3c-4.2,1.2-8.2,2.6-12,4.3c-11.7,4.1-22,10.5-31.2,19.5
	C17.9,155.1,9.1,170.1,4,185.7c-2.9,9.1-5.4,18.5-3.2,28.1c2.2,9.5,11,16.1,20.8,13.3c2.5-0.7,4.7-1.9,6.8-3.4
	c5.6-3.9,10-9.8,13.8-15c5.4-7.3,10-15.1,14.4-23c0.6-1.1,1.2-2.2,1.9-3.4c9-16.2,16.7-33.1,23.4-50.4c6.9-1.5,14.4-2.3,22.1-2.3
	c17.1,0,35.7,3.8,53.8,11.8c2.6,1.1,5.1,2.4,7.6,3.6c0.1,0,0.1,0.1,0.2,0.1l37.4,81h23.2h14.2h26L243,210z M25.3,207.2
	c-0.8,0.9-1.7,1.9-2.6,2.8c-0.5,0.5-1.1,1-1.7,1.4c-3.9,2.9-6.9,1.1-6.8-3.7c0.1-2.4,0.5-4.9,0.8-6.8c0.7-4,1.8-8,3-11.9
	c0.2-0.6,0.4-1.2,0.6-1.8c3-9.3,7.3-16.6,13.8-25.6c5.5-7.7,13.2-14.1,21.5-19c3.4-2,6.9-3.5,10.5-4.8l-1.1,2.5
	c-4.2,9.8-8.8,19.5-13.8,29c-4.8,9.1-9.8,18.5-15.7,27C31.1,200.1,28.3,203.8,25.3,207.2z M89.1,116.5l31.8-69l30.7,67.1l5,11
	C133.5,116.6,110,113.8,89.1,116.5z"/>
</svg>
