<?xml version="1.0" encoding="utf-8"?>
<!-- Generator: Adobe Illustrator 27.0.0, SVG Export Plug-In . SVG Version: 6.00 Build 0)  -->
<svg version="1.1" id="Layer_1" xmlns="http://www.w3.org/2000/svg" xmlns:xlink="http://www.w3.org/1999/xlink" x="0px" y="0px"
	 viewBox="0 0 500 500" style="enable-background:new 0 0 500 500;" xml:space="preserve">
<g>
	<path d="M284.5,251.5l-30.9-67.1h-15.2l4.6,10.2l-12.8,28c0,0-0.1,0.1-0.1,0.1c-1.3,0.4-2.6,0.8-3.8,1.4c-3.7,1.3-7,3.4-10,6.2
		c-3.7,3.7-6.6,8.5-8.2,13.4c-0.9,2.9-1.7,5.9-1,9c0.7,3,3.5,5.1,6.6,4.2c0.8-0.2,1.5-0.6,2.2-1.1c1.8-1.2,3.2-3.1,4.4-4.8
		c1.7-2.3,3.2-4.8,4.6-7.3c0.2-0.4,0.4-0.7,0.6-1.1c2.9-5.2,5.4-10.6,7.5-16.1c2.2-0.5,4.6-0.7,7.1-0.7c5.5,0,11.4,1.2,17.2,3.8
		c0.8,0.4,1.6,0.8,2.4,1.2c0,0,0,0,0.1,0l12,25.9h7.4h4.5h8.3L284.5,251.5z M214.9,250.6c-0.3,0.3-0.5,0.6-0.8,0.9
		c-0.2,0.2-0.3,0.3-0.5,0.5c-1.2,0.9-2.2,0.4-2.2-1.2c0-0.8,0.1-1.6,0.2-2.2c0.2-1.3,0.6-2.6,0.9-3.8c0.1-0.2,0.1-0.4,0.2-0.6
		c1-3,2.3-5.3,4.4-8.2c1.8-2.5,4.2-4.5,6.9-6.1c1.1-0.6,2.2-1.1,3.4-1.5l-0.3,0.8c-1.3,3.1-2.8,6.2-4.4,9.3c-1.5,2.9-3.1,5.9-5,8.6
		C216.8,248.4,215.9,249.5,214.9,250.6z M235.3,221.6l10.2-22.1l9.8,21.4l1.6,3.5C249.5,221.7,242,220.8,235.3,221.6z"/>
	<g>
		<path d="M100.7,315.1H88.5v-1.5c1.1-0.1,2-0.2,2.7-0.4c0.7-0.2,1.1-0.5,1.1-0.8c0-0.1,0-0.3,0-0.5c0-0.2-0.1-0.3-0.1-0.5l-2.4-6.5
			H79.4c-0.4,1-0.7,1.8-0.9,2.5c-0.2,0.7-0.5,1.4-0.6,2c-0.2,0.6-0.3,1.1-0.4,1.4c-0.1,0.4-0.1,0.7-0.1,0.9c0,0.5,0.4,1,1.3,1.3
			c0.9,0.3,1.8,0.5,2.9,0.5v1.5h-11v-1.5c0.4,0,0.8-0.1,1.3-0.2c0.5-0.1,1-0.3,1.3-0.5c0.5-0.4,1-0.8,1.3-1.2c0.3-0.4,0.6-1,0.9-1.7
			c1.5-3.7,3.1-7.8,4.9-12.4c1.8-4.6,3.3-8.6,4.7-12.2h1.6l9.7,25.2c0.2,0.5,0.4,1,0.7,1.3c0.3,0.3,0.6,0.7,1.1,1
			c0.3,0.2,0.7,0.4,1.2,0.5c0.5,0.1,0.9,0.2,1.3,0.2V315.1z M88.9,303.1l-4.4-11.3l-4.4,11.3H88.9z"/>
		<path d="M122.6,293.8h-1.4c-0.1-0.5-0.3-1.1-0.7-1.8c-0.3-0.7-0.7-1.3-1.1-1.9c-0.4-0.6-0.9-1.2-1.4-1.7c-0.5-0.5-1-0.7-1.4-0.8
			c-0.4-0.1-1-0.1-1.6-0.1c-0.6,0-1.2,0-1.8,0h-1.2v23.4c0,0.5,0.1,0.9,0.3,1.2c0.2,0.4,0.5,0.7,1,0.9c0.2,0.1,0.8,0.2,1.6,0.4
			c0.8,0.2,1.4,0.3,1.8,0.3v1.5H103v-1.5c0.4,0,1-0.1,1.8-0.2c0.8-0.1,1.3-0.2,1.6-0.3c0.5-0.2,0.8-0.4,1-0.8
			c0.2-0.3,0.3-0.8,0.3-1.3v-23.6h-1.2c-0.4,0-1,0-1.6,0c-0.6,0-1.2,0.1-1.8,0.1c-0.5,0.1-0.9,0.3-1.4,0.8c-0.5,0.5-0.9,1-1.3,1.7
			c-0.4,0.6-0.8,1.3-1.1,2c-0.3,0.7-0.5,1.3-0.7,1.7h-1.4v-7.9h25.5V293.8z"/>
		<path d="M155.2,315.1h-12.1v-1.5c0.3,0,0.8-0.1,1.4-0.1c0.6-0.1,1.1-0.1,1.3-0.2c0.4-0.2,0.7-0.4,0.9-0.8c0.2-0.3,0.3-0.8,0.3-1.3
			v-10.4h-13.7v10.2c0,0.5,0.1,0.9,0.2,1.2c0.2,0.3,0.5,0.6,0.9,0.9c0.2,0.1,0.6,0.2,1.2,0.4c0.6,0.1,1.1,0.2,1.4,0.2v1.5h-12.1
			v-1.5c0.3,0,0.8-0.1,1.4-0.1c0.6-0.1,1.1-0.1,1.3-0.2c0.4-0.2,0.7-0.4,0.9-0.8c0.2-0.3,0.3-0.8,0.3-1.3v-21.1
			c0-0.4-0.1-0.8-0.3-1.2c-0.2-0.4-0.5-0.6-0.9-0.9c-0.4-0.2-0.8-0.3-1.3-0.5c-0.5-0.1-1-0.2-1.4-0.2v-1.5h12.1v1.5
			c-0.4,0-0.9,0.1-1.4,0.2c-0.6,0.1-1,0.2-1.2,0.3c-0.5,0.2-0.8,0.4-0.9,0.8c-0.2,0.4-0.2,0.8-0.2,1.3v9.1H147v-8.9
			c0-0.4-0.1-0.8-0.3-1.2c-0.2-0.4-0.5-0.6-0.9-0.9c-0.4-0.2-0.8-0.3-1.3-0.5c-0.5-0.1-1-0.2-1.4-0.2v-1.5h12.1v1.5
			c-0.4,0-0.9,0.1-1.4,0.2c-0.6,0.1-1,0.2-1.2,0.3c-0.5,0.2-0.8,0.4-0.9,0.8c-0.2,0.4-0.2,0.8-0.2,1.3v21.1c0,0.5,0.1,0.9,0.2,1.2
			c0.2,0.3,0.5,0.6,0.9,0.9c0.2,0.1,0.6,0.2,1.2,0.4c0.6,0.1,1.1,0.2,1.4,0.2V315.1z"/>
		<path d="M182.9,306.4l-0.6,8.6h-24.3v-1.5c0.4,0,1-0.1,1.6-0.2c0.7-0.1,1.1-0.2,1.3-0.3c0.4-0.2,0.7-0.5,0.9-0.8
			c0.2-0.3,0.3-0.7,0.3-1.3v-21c0-0.5-0.1-0.9-0.2-1.2c-0.2-0.4-0.5-0.6-0.9-0.9c-0.4-0.2-0.9-0.3-1.5-0.5c-0.6-0.1-1.1-0.2-1.5-0.2
			v-1.5h22.6v7h-1.5c-0.3-1-0.9-2.2-1.8-3.3c-0.9-1.2-1.8-1.8-2.6-1.9c-0.4-0.1-0.9-0.1-1.5-0.1c-0.6,0-1.3,0-2,0h-4.6v11.6h3.3
			c1.1,0,1.8-0.1,2.3-0.3c0.5-0.2,0.9-0.5,1.3-1c0.3-0.4,0.6-0.9,0.8-1.6c0.2-0.7,0.4-1.3,0.4-1.9h1.5v11.4h-1.5
			c-0.1-0.7-0.2-1.4-0.4-2.1c-0.2-0.7-0.5-1.3-0.8-1.6c-0.4-0.5-0.9-0.9-1.5-1.1c-0.5-0.2-1.3-0.2-2.2-0.2h-3.3v8.8
			c0,0.9,0.1,1.6,0.2,2.1c0.1,0.5,0.4,0.9,0.7,1.2c0.4,0.3,0.8,0.4,1.5,0.5c0.6,0.1,1.5,0.1,2.6,0.1c0.5,0,1.1,0,1.8,0
			c0.7,0,1.4,0,1.9-0.1c0.5-0.1,1.1-0.2,1.6-0.3c0.6-0.1,1-0.3,1.2-0.6c0.6-0.7,1.3-1.7,2-3c0.7-1.3,1.1-2.3,1.3-3H182.9z"/>
		<path d="M216.4,287.4c-0.4,0-1,0.1-1.8,0.3c-0.8,0.2-1.4,0.4-1.7,0.6c-0.5,0.3-0.8,1-1,2c-0.2,1-0.3,2.2-0.3,3.7v21.4h-1.8
			l-17.7-23.9v15.1c0,1.7,0.1,3,0.3,3.9s0.5,1.6,1,1.9c0.3,0.3,1,0.6,2,0.8s1.6,0.4,2,0.4v1.5h-12v-1.5c0.4,0,1-0.2,1.9-0.4
			c0.9-0.2,1.4-0.5,1.6-0.6c0.5-0.4,0.8-1,1-1.8c0.2-0.8,0.3-2.1,0.3-4v-14.4c0-0.6-0.1-1.3-0.3-1.9c-0.2-0.6-0.5-1.1-0.9-1.5
			c-0.5-0.5-1.2-0.8-2-1.2c-0.8-0.3-1.5-0.5-2-0.5v-1.5h8.3l16.4,22.3v-13.9c0-1.7-0.1-3-0.3-3.9c-0.2-0.9-0.5-1.5-0.9-1.8
			c-0.4-0.3-1-0.5-1.9-0.8s-1.5-0.4-2-0.4v-1.5h11.9V287.4z"/>
		<path d="M236,301.7c0.6,0.7,1.1,1.4,1.4,2.3c0.3,0.8,0.4,1.8,0.4,2.9c0,2.6-1,4.7-2.9,6.4c-1.9,1.7-4.3,2.5-7.1,2.5
			c-1.3,0-2.6-0.2-3.9-0.6c-1.3-0.4-2.4-0.9-3.4-1.5l-0.9,1.5H218l-0.3-10h1.7c0.3,1.2,0.7,2.4,1.2,3.3c0.5,1,1.1,1.9,1.8,2.8
			c0.7,0.8,1.5,1.5,2.5,1.9c1,0.5,2.1,0.7,3.3,0.7c0.9,0,1.8-0.1,2.5-0.4c0.7-0.2,1.3-0.6,1.7-1.1c0.4-0.5,0.8-1,1-1.6
			c0.2-0.6,0.3-1.3,0.3-2.1c0-1.2-0.3-2.3-1-3.3c-0.7-1-1.6-1.8-2.9-2.3c-0.9-0.4-1.9-0.7-3.1-1.2c-1.2-0.4-2.1-0.8-3-1.2
			c-1.6-0.7-2.9-1.7-3.8-2.9c-0.9-1.2-1.4-2.8-1.4-4.7c0-1.1,0.2-2.1,0.7-3.1c0.5-1,1.1-1.8,1.9-2.6c0.8-0.7,1.7-1.3,2.8-1.7
			c1.1-0.4,2.2-0.6,3.4-0.6c1.3,0,2.5,0.2,3.6,0.6s2,0.9,2.9,1.4l0.8-1.4h1.6l0.2,9.7h-1.7c-0.3-1.1-0.6-2.2-1-3.2
			c-0.4-1-0.9-1.9-1.5-2.8c-0.6-0.8-1.3-1.4-2.2-1.9c-0.9-0.5-1.9-0.7-3.1-0.7c-1.3,0-2.4,0.4-3.3,1.3c-0.9,0.8-1.4,1.9-1.4,3.1
			c0,1.3,0.3,2.3,0.9,3.1c0.6,0.8,1.4,1.5,2.6,2c1,0.5,2,0.9,3,1.2c1,0.3,1.9,0.7,2.8,1.1c0.8,0.4,1.6,0.8,2.4,1.2
			C234.7,300.6,235.4,301.1,236,301.7z"/>
		<path d="M265.9,315.8c-1.7,0-3.4-0.3-5-1c-1.6-0.7-3-1.7-4.2-3c-1.2-1.3-2.2-2.9-2.9-4.7c-0.7-1.9-1.1-4-1.1-6.3
			c0-2.3,0.4-4.5,1.1-6.4c0.7-1.9,1.7-3.5,3-4.9c1.2-1.4,2.7-2.4,4.4-3.2c1.7-0.7,3.5-1.1,5.5-1.1c1.4,0,2.7,0.2,3.9,0.5
			c1.2,0.4,2.3,0.9,3.3,1.5l0.8-1.4h1.6l0.2,10.4h-1.7c-0.2-1-0.5-2.1-1-3.3c-0.4-1.2-1-2.2-1.5-3c-0.7-0.9-1.4-1.7-2.3-2.2
			c-0.9-0.5-1.9-0.8-3.1-0.8c-1.3,0-2.6,0.3-3.7,0.9c-1.1,0.6-2.1,1.5-3,2.6c-0.8,1.1-1.4,2.5-1.9,4.2c-0.5,1.7-0.7,3.6-0.7,5.7
			c0,1.9,0.2,3.6,0.7,5.1c0.5,1.6,1.1,2.9,2,4.1c0.9,1.2,1.9,2.1,3.1,2.7c1.2,0.7,2.5,1,4,1c1.1,0,2.1-0.2,3.1-0.5
			c0.9-0.3,1.7-0.8,2.4-1.4c0.7-0.6,1.3-1.3,1.8-2.1c0.5-0.8,0.9-1.6,1.3-2.5l1.5,0.7c-1.2,2.9-2.7,5-4.7,6.2
			C270.9,315.1,268.6,315.8,265.9,315.8z"/>
		<path d="M310.4,315.1h-12.1v-1.5c0.3,0,0.8-0.1,1.4-0.1c0.6-0.1,1.1-0.1,1.3-0.2c0.4-0.2,0.7-0.4,0.9-0.8c0.2-0.3,0.3-0.8,0.3-1.3
			v-10.4h-13.7v10.2c0,0.5,0.1,0.9,0.2,1.2c0.2,0.3,0.5,0.6,0.9,0.9c0.2,0.1,0.6,0.2,1.2,0.4c0.6,0.1,1.1,0.2,1.4,0.2v1.5h-12.1
			v-1.5c0.3,0,0.8-0.1,1.4-0.1c0.6-0.1,1.1-0.1,1.3-0.2c0.4-0.2,0.7-0.4,0.9-0.8c0.2-0.3,0.3-0.8,0.3-1.3v-21.1
			c0-0.4-0.1-0.8-0.3-1.2c-0.2-0.4-0.5-0.6-0.9-0.9c-0.4-0.2-0.8-0.3-1.3-0.5c-0.5-0.1-1-0.2-1.4-0.2v-1.5h12.1v1.5
			c-0.4,0-0.9,0.1-1.4,0.2c-0.6,0.1-1,0.2-1.2,0.3c-0.5,0.2-0.8,0.4-0.9,0.8c-0.2,0.4-0.2,0.8-0.2,1.3v9.1h13.7v-8.9
			c0-0.4-0.1-0.8-0.3-1.2c-0.2-0.4-0.5-0.6-0.9-0.9c-0.4-0.2-0.8-0.3-1.3-0.5c-0.5-0.1-1-0.2-1.4-0.2v-1.5h12.1v1.5
			c-0.4,0-0.9,0.1-1.4,0.2c-0.6,0.1-1,0.2-1.2,0.3c-0.5,0.2-0.8,0.4-0.9,0.8c-0.2,0.4-0.2,0.8-0.2,1.3v21.1c0,0.5,0.1,0.9,0.2,1.2
			c0.2,0.3,0.5,0.6,0.9,0.9c0.2,0.1,0.6,0.2,1.2,0.4c0.6,0.1,1.1,0.2,1.4,0.2V315.1z"/>
		<path d="M343,287.3c-0.4,0-0.9,0.1-1.7,0.2c-0.7,0.2-1.3,0.4-1.8,0.7c-0.5,0.3-0.8,1-1,2c-0.2,1-0.3,2.2-0.3,3.6v12.7
			c0,1.6-0.3,3-1,4.2c-0.7,1.2-1.6,2.2-2.7,2.9c-1.1,0.7-2.2,1.3-3.4,1.6c-1.2,0.3-2.4,0.5-3.4,0.5c-1.8,0-3.3-0.2-4.7-0.7
			c-1.4-0.5-2.5-1.1-3.5-1.9c-0.9-0.8-1.6-1.7-2.1-2.7c-0.5-1-0.7-2.1-0.7-3.2v-17.3c0-0.5-0.1-0.9-0.2-1.2c-0.2-0.3-0.5-0.6-1-0.9
			c-0.3-0.2-0.8-0.3-1.3-0.5c-0.5-0.1-1-0.2-1.3-0.2v-1.5h12.2v1.5c-0.4,0-0.9,0.1-1.5,0.2c-0.6,0.1-1,0.2-1.3,0.3
			c-0.5,0.2-0.8,0.4-0.9,0.8c-0.2,0.4-0.2,0.8-0.2,1.3V306c0,0.8,0.1,1.6,0.3,2.5c0.2,0.9,0.5,1.7,1,2.4c0.5,0.8,1.3,1.4,2.2,1.9
			c0.9,0.5,2.2,0.7,3.8,0.7c1.5,0,2.8-0.2,3.8-0.7c1-0.5,1.8-1.1,2.4-1.9c0.6-0.7,1-1.5,1.2-2.3c0.2-0.8,0.3-1.6,0.3-2.4v-12
			c0-1.5-0.1-2.8-0.3-3.7c-0.2-1-0.5-1.6-1-1.9c-0.5-0.3-1.1-0.6-2-0.8c-0.8-0.2-1.5-0.3-1.9-0.3v-1.5H343V287.3z"/>
		<path d="M372.8,315.1H365c-1.7-2.7-3.3-5.1-4.7-7.1c-1.4-2-2.9-4-4.6-6.2h-3v9.3c0,0.5,0.1,0.9,0.2,1.3c0.2,0.4,0.5,0.6,1,0.8
			c0.2,0.1,0.7,0.2,1.3,0.3c0.6,0.1,1.1,0.1,1.6,0.1v1.5h-12.4v-1.5c0.3,0,0.8-0.1,1.4-0.1c0.6-0.1,1.1-0.2,1.3-0.3
			c0.4-0.2,0.7-0.4,0.9-0.8c0.2-0.3,0.3-0.8,0.3-1.3V290c0-0.5-0.1-0.9-0.2-1.3s-0.5-0.7-1-0.8c-0.3-0.1-0.8-0.2-1.3-0.3
			c-0.5-0.1-1-0.2-1.4-0.2v-1.5h13.5c1.2,0,2.4,0.1,3.5,0.4c1.1,0.3,2.1,0.7,2.9,1.2c0.9,0.5,1.5,1.3,2,2.2c0.5,0.9,0.8,2,0.8,3.2
			c0,1.1-0.2,2.1-0.5,3c-0.3,0.9-0.9,1.6-1.5,2.2c-0.6,0.6-1.4,1.1-2.2,1.5c-0.9,0.4-1.8,0.8-2.9,1.1c1.4,1.9,2.6,3.5,3.6,4.8
			c1,1.3,2.1,2.9,3.5,4.8c0.6,0.8,1.2,1.4,1.6,1.8s1,0.7,1.5,1c0.4,0.2,0.8,0.3,1.3,0.4c0.5,0.1,1,0.2,1.3,0.2V315.1z M362,293.3
			c0-1.8-0.5-3.2-1.5-4.2s-2.5-1.6-4.3-1.6h-3.5V300h2.7c1.9,0,3.5-0.6,4.7-1.8C361.4,297,362,295.4,362,293.3z"/>
		<path d="M384.8,315.8c-1.7,0-3.4-0.3-5-1c-1.6-0.7-3-1.7-4.2-3c-1.2-1.3-2.2-2.9-2.9-4.7c-0.7-1.9-1.1-4-1.1-6.3
			c0-2.3,0.4-4.5,1.1-6.4c0.7-1.9,1.7-3.5,3-4.9c1.2-1.4,2.7-2.4,4.4-3.2c1.7-0.7,3.5-1.1,5.5-1.1c1.4,0,2.7,0.2,3.9,0.5
			c1.2,0.4,2.3,0.9,3.3,1.5l0.8-1.4h1.6l0.2,10.4h-1.7c-0.2-1-0.5-2.1-1-3.3c-0.4-1.2-1-2.2-1.5-3c-0.7-0.9-1.4-1.7-2.3-2.2
			c-0.9-0.5-1.9-0.8-3.1-0.8c-1.3,0-2.6,0.3-3.7,0.9c-1.1,0.6-2.1,1.5-3,2.6c-0.8,1.1-1.4,2.5-1.9,4.2c-0.5,1.7-0.7,3.6-0.7,5.7
			c0,1.9,0.2,3.6,0.7,5.1c0.5,1.6,1.1,2.9,2,4.1c0.9,1.2,1.9,2.1,3.1,2.7c1.2,0.7,2.5,1,4,1c1.1,0,2.1-0.2,3.1-0.5
			c0.9-0.3,1.7-0.8,2.4-1.4c0.7-0.6,1.3-1.3,1.8-2.1c0.5-0.8,0.9-1.6,1.3-2.5l1.5,0.7c-1.2,2.9-2.7,5-4.7,6.2
			C389.8,315.1,387.5,315.8,384.8,315.8z"/>
		<path d="M428.3,315.1h-12.1v-1.5c0.3,0,0.8-0.1,1.4-0.1c0.6-0.1,1.1-0.1,1.3-0.2c0.4-0.2,0.7-0.4,0.9-0.8c0.2-0.3,0.3-0.8,0.3-1.3
			v-10.4h-13.7v10.2c0,0.5,0.1,0.9,0.2,1.2c0.2,0.3,0.5,0.6,0.9,0.9c0.2,0.1,0.6,0.2,1.2,0.4c0.6,0.1,1.1,0.2,1.4,0.2v1.5h-12.1
			v-1.5c0.3,0,0.8-0.1,1.4-0.1c0.6-0.1,1.1-0.1,1.3-0.2c0.4-0.2,0.7-0.4,0.9-0.8c0.2-0.3,0.3-0.8,0.3-1.3v-21.1
			c0-0.4-0.1-0.8-0.3-1.2c-0.2-0.4-0.5-0.6-0.9-0.9c-0.4-0.2-0.8-0.3-1.3-0.5c-0.5-0.1-1-0.2-1.4-0.2v-1.5h12.1v1.5
			c-0.4,0-0.9,0.1-1.4,0.2c-0.6,0.1-1,0.2-1.2,0.3c-0.5,0.2-0.8,0.4-0.9,0.8c-0.2,0.4-0.2,0.8-0.2,1.3v9.1h13.7v-8.9
			c0-0.4-0.1-0.8-0.3-1.2c-0.2-0.4-0.5-0.6-0.9-0.9c-0.4-0.2-0.8-0.3-1.3-0.5c-0.5-0.1-1-0.2-1.4-0.2v-1.5h12.1v1.5
			c-0.4,0-0.9,0.1-1.4,0.2c-0.6,0.1-1,0.2-1.2,0.3c-0.5,0.2-0.8,0.4-0.9,0.8c-0.2,0.4-0.2,0.8-0.2,1.3v21.1c0,0.5,0.1,0.9,0.2,1.2
			c0.2,0.3,0.5,0.6,0.9,0.9c0.2,0.1,0.6,0.2,1.2,0.4c0.6,0.1,1.1,0.2,1.4,0.2V315.1z"/>
	</g>
</g>
</svg>
