<?xml version="1.0" encoding="utf-8"?>
<!-- Generator: Adobe Illustrator 27.0.0, SVG Export Plug-In . SVG Version: 6.00 Build 0)  -->
<svg version="1.1" id="Layer_1" xmlns="http://www.w3.org/2000/svg" xmlns:xlink="http://www.w3.org/1999/xlink" x="0px" y="0px"
	 viewBox="0 0 385.6 150" style="enable-background:new 0 0 385.6 150;" xml:space="preserve">
<g>
	<path d="M43.6,89.2H31.4v-1.5c1.1-0.1,2-0.2,2.7-0.4c0.7-0.2,1.1-0.5,1.1-0.8c0-0.1,0-0.3,0-0.5c0-0.2-0.1-0.3-0.1-0.5l-2.4-6.5
		H22.3c-0.4,1-0.7,1.8-0.9,2.5c-0.2,0.7-0.5,1.4-0.6,2c-0.2,0.6-0.3,1.1-0.4,1.4c-0.1,0.4-0.1,0.7-0.1,0.9c0,0.5,0.4,1,1.3,1.3
		c0.9,0.3,1.8,0.5,2.9,0.5v1.5h-11v-1.5c0.4,0,0.8-0.1,1.3-0.2c0.5-0.1,1-0.3,1.3-0.5c0.5-0.4,1-0.8,1.3-1.2c0.3-0.4,0.6-1,0.9-1.7
		c1.5-3.7,3.1-7.8,4.9-12.4c1.8-4.6,3.3-8.6,4.7-12.2h1.6l9.7,25.2c0.2,0.5,0.4,1,0.7,1.3c0.3,0.3,0.6,0.7,1.1,1
		c0.3,0.2,0.7,0.4,1.2,0.5c0.5,0.1,0.9,0.2,1.3,0.2V89.2z M31.8,77.3l-4.4-11.3L23,77.3H31.8z"/>
	<path d="M65.5,67.9h-1.4c-0.1-0.5-0.3-1.1-0.7-1.8c-0.3-0.7-0.7-1.3-1.1-1.9c-0.4-0.6-0.9-1.2-1.4-1.7c-0.5-0.5-1-0.7-1.4-0.8
		c-0.4-0.1-1-0.1-1.6-0.1c-0.6,0-1.2,0-1.8,0H55V85c0,0.5,0.1,0.9,0.3,1.2c0.2,0.4,0.5,0.7,1,0.9c0.2,0.1,0.8,0.2,1.6,0.4
		c0.8,0.2,1.4,0.3,1.8,0.3v1.5H45.9v-1.5c0.4,0,1-0.1,1.8-0.2c0.8-0.1,1.3-0.2,1.6-0.3c0.5-0.2,0.8-0.4,1-0.8s0.3-0.8,0.3-1.3V61.6
		h-1.2c-0.4,0-1,0-1.6,0c-0.6,0-1.2,0.1-1.8,0.1c-0.5,0.1-0.9,0.3-1.4,0.8c-0.5,0.5-0.9,1-1.3,1.7c-0.4,0.6-0.8,1.3-1.1,2
		s-0.5,1.3-0.7,1.7h-1.4V60h25.5V67.9z"/>
	<path d="M98.1,89.2H86v-1.5c0.3,0,0.8-0.1,1.4-0.1c0.6-0.1,1.1-0.1,1.3-0.2c0.4-0.2,0.7-0.4,0.9-0.8c0.2-0.3,0.3-0.8,0.3-1.3V74.9
		H76.2v10.2c0,0.5,0.1,0.9,0.2,1.2c0.2,0.3,0.5,0.6,0.9,0.9c0.2,0.1,0.6,0.2,1.2,0.4c0.6,0.1,1.1,0.2,1.4,0.2v1.5H67.9v-1.5
		c0.3,0,0.8-0.1,1.4-0.1c0.6-0.1,1.1-0.1,1.3-0.2c0.4-0.2,0.7-0.4,0.9-0.8c0.2-0.3,0.3-0.8,0.3-1.3V64.2c0-0.4-0.1-0.8-0.3-1.2
		c-0.2-0.4-0.5-0.6-0.9-0.9c-0.4-0.2-0.8-0.3-1.3-0.5c-0.5-0.1-1-0.2-1.4-0.2V60H80v1.5c-0.4,0-0.9,0.1-1.4,0.2
		c-0.6,0.1-1,0.2-1.2,0.3c-0.5,0.2-0.8,0.4-0.9,0.8c-0.2,0.4-0.2,0.8-0.2,1.3v9.1h13.7v-8.9c0-0.4-0.1-0.8-0.3-1.2
		c-0.2-0.4-0.5-0.6-0.9-0.9c-0.4-0.2-0.8-0.3-1.3-0.5c-0.5-0.1-1-0.2-1.4-0.2V60h12.1v1.5c-0.4,0-0.9,0.1-1.4,0.2
		c-0.6,0.1-1,0.2-1.2,0.3c-0.5,0.2-0.8,0.4-0.9,0.8c-0.2,0.4-0.2,0.8-0.2,1.3v21.1c0,0.5,0.1,0.9,0.2,1.2s0.5,0.6,0.9,0.9
		c0.2,0.1,0.6,0.2,1.2,0.4c0.6,0.1,1.1,0.2,1.4,0.2V89.2z"/>
	<path d="M125.8,80.6l-0.6,8.6H101v-1.5c0.4,0,1-0.1,1.6-0.2c0.7-0.1,1.1-0.2,1.3-0.3c0.4-0.2,0.7-0.5,0.9-0.8
		c0.2-0.3,0.3-0.7,0.3-1.3v-21c0-0.5-0.1-0.9-0.2-1.2c-0.2-0.4-0.5-0.6-0.9-0.9c-0.4-0.2-0.9-0.3-1.5-0.5c-0.6-0.1-1.1-0.2-1.5-0.2
		V60h22.6v7H122c-0.3-1-0.9-2.2-1.8-3.3c-0.9-1.2-1.8-1.8-2.6-1.9c-0.4-0.1-0.9-0.1-1.5-0.1c-0.6,0-1.3,0-2,0h-4.6v11.6h3.3
		c1.1,0,1.8-0.1,2.3-0.3c0.5-0.2,0.9-0.5,1.3-1c0.3-0.4,0.6-0.9,0.8-1.6c0.2-0.7,0.4-1.3,0.4-1.9h1.5v11.4h-1.5
		c-0.1-0.7-0.2-1.4-0.4-2.1c-0.2-0.7-0.5-1.3-0.8-1.6c-0.4-0.5-0.9-0.9-1.5-1.1c-0.5-0.2-1.3-0.2-2.2-0.2h-3.3v8.8
		c0,0.9,0.1,1.6,0.2,2.1c0.1,0.5,0.4,0.9,0.7,1.2c0.4,0.3,0.8,0.4,1.5,0.5c0.6,0.1,1.5,0.1,2.6,0.1c0.5,0,1.1,0,1.8,0
		c0.7,0,1.4,0,1.9-0.1c0.5-0.1,1.1-0.2,1.6-0.3c0.6-0.1,1-0.3,1.2-0.6c0.6-0.7,1.3-1.7,2-3c0.7-1.3,1.1-2.3,1.3-3H125.8z"/>
	<path d="M159.3,61.5c-0.4,0-1,0.1-1.8,0.3c-0.8,0.2-1.4,0.4-1.7,0.6c-0.5,0.3-0.8,1-1,2c-0.2,1-0.3,2.2-0.3,3.7v21.4h-1.8
		l-17.7-23.9v15.1c0,1.7,0.1,3,0.3,3.9c0.2,0.9,0.5,1.6,1,1.9c0.3,0.3,1,0.6,2,0.8s1.6,0.4,2,0.4v1.5h-12v-1.5c0.4,0,1-0.2,1.9-0.4
		c0.9-0.2,1.4-0.5,1.6-0.6c0.5-0.4,0.8-1,1-1.8c0.2-0.8,0.3-2.1,0.3-4V66.6c0-0.6-0.1-1.3-0.3-1.9c-0.2-0.6-0.5-1.1-0.9-1.5
		c-0.5-0.5-1.2-0.8-2-1.2c-0.8-0.3-1.5-0.5-2-0.5V60h8.3l16.4,22.3V68.4c0-1.7-0.1-3-0.3-3.9c-0.2-0.9-0.5-1.5-0.9-1.8
		c-0.4-0.3-1-0.5-1.9-0.8c-0.9-0.2-1.5-0.4-2-0.4V60h11.9V61.5z"/>
	<path d="M178.9,75.9c0.6,0.7,1.1,1.4,1.4,2.3c0.3,0.8,0.4,1.8,0.4,2.9c0,2.6-1,4.7-2.9,6.4c-1.9,1.7-4.3,2.5-7.1,2.5
		c-1.3,0-2.6-0.2-3.9-0.6c-1.3-0.4-2.4-0.9-3.4-1.5l-0.9,1.5h-1.6l-0.3-10h1.7c0.3,1.2,0.7,2.4,1.2,3.3c0.5,1,1.1,1.9,1.8,2.8
		c0.7,0.8,1.5,1.5,2.5,1.9c1,0.5,2.1,0.7,3.3,0.7c0.9,0,1.8-0.1,2.5-0.4c0.7-0.2,1.3-0.6,1.7-1.1c0.4-0.5,0.8-1,1-1.6
		c0.2-0.6,0.3-1.3,0.3-2.1c0-1.2-0.3-2.3-1-3.3c-0.7-1-1.6-1.8-2.9-2.3c-0.9-0.4-1.9-0.7-3.1-1.2c-1.2-0.4-2.1-0.8-3-1.2
		c-1.6-0.7-2.9-1.7-3.8-2.9c-0.9-1.2-1.4-2.8-1.4-4.7c0-1.1,0.2-2.1,0.7-3.1c0.5-1,1.1-1.8,1.9-2.6c0.8-0.7,1.7-1.3,2.8-1.7
		c1.1-0.4,2.2-0.6,3.4-0.6c1.3,0,2.5,0.2,3.6,0.6s2,0.9,2.9,1.4l0.8-1.4h1.6l0.2,9.7h-1.7c-0.3-1.1-0.6-2.2-1-3.2
		c-0.4-1-0.9-1.9-1.5-2.8c-0.6-0.8-1.3-1.4-2.2-1.9c-0.9-0.5-1.9-0.7-3.1-0.7c-1.3,0-2.4,0.4-3.3,1.3c-0.9,0.8-1.4,1.9-1.4,3.1
		c0,1.3,0.3,2.3,0.9,3.1c0.6,0.8,1.4,1.5,2.6,2c1,0.5,2,0.9,3,1.2c1,0.3,1.9,0.7,2.8,1.1c0.8,0.4,1.6,0.8,2.4,1.2
		C177.6,74.7,178.3,75.3,178.9,75.9z"/>
	<path d="M208.8,89.9c-1.7,0-3.4-0.3-5-1c-1.6-0.7-3-1.7-4.2-3c-1.2-1.3-2.2-2.9-2.9-4.7c-0.7-1.9-1.1-4-1.1-6.3
		c0-2.3,0.4-4.5,1.1-6.4c0.7-1.9,1.7-3.5,3-4.9c1.2-1.4,2.7-2.4,4.4-3.2c1.7-0.7,3.5-1.1,5.5-1.1c1.4,0,2.7,0.2,3.9,0.5
		c1.2,0.4,2.3,0.9,3.3,1.5l0.8-1.4h1.6l0.2,10.4h-1.7c-0.2-1-0.5-2.1-1-3.3c-0.4-1.2-1-2.2-1.5-3c-0.7-0.9-1.4-1.7-2.3-2.2
		c-0.9-0.5-1.9-0.8-3.1-0.8c-1.3,0-2.6,0.3-3.7,0.9c-1.1,0.6-2.1,1.5-3,2.6c-0.8,1.1-1.4,2.5-1.9,4.2c-0.5,1.7-0.7,3.6-0.7,5.7
		c0,1.9,0.2,3.6,0.7,5.1c0.5,1.6,1.1,2.9,2,4.1c0.9,1.2,1.9,2.1,3.1,2.7c1.2,0.7,2.5,1,4,1c1.1,0,2.1-0.2,3.1-0.5
		c0.9-0.3,1.7-0.8,2.4-1.4c0.7-0.6,1.3-1.3,1.8-2.1s0.9-1.6,1.3-2.5l1.5,0.7c-1.2,2.9-2.7,5-4.7,6.2
		C213.8,89.3,211.5,89.9,208.8,89.9z"/>
	<path d="M253.3,89.2h-12.1v-1.5c0.3,0,0.8-0.1,1.4-0.1c0.6-0.1,1.1-0.1,1.3-0.2c0.4-0.2,0.7-0.4,0.9-0.8c0.2-0.3,0.3-0.8,0.3-1.3
		V74.9h-13.7v10.2c0,0.5,0.1,0.9,0.2,1.2c0.2,0.3,0.5,0.6,0.9,0.9c0.2,0.1,0.6,0.2,1.2,0.4c0.6,0.1,1.1,0.2,1.4,0.2v1.5H223v-1.5
		c0.3,0,0.8-0.1,1.4-0.1c0.6-0.1,1.1-0.1,1.3-0.2c0.4-0.2,0.7-0.4,0.9-0.8c0.2-0.3,0.3-0.8,0.3-1.3V64.2c0-0.4-0.1-0.8-0.3-1.2
		c-0.2-0.4-0.5-0.6-0.9-0.9c-0.4-0.2-0.8-0.3-1.3-0.5c-0.5-0.1-1-0.2-1.4-0.2V60h12.1v1.5c-0.4,0-0.9,0.1-1.4,0.2
		c-0.6,0.1-1,0.2-1.2,0.3c-0.5,0.2-0.8,0.4-0.9,0.8c-0.2,0.4-0.2,0.8-0.2,1.3v9.1h13.7v-8.9c0-0.4-0.1-0.8-0.3-1.2
		c-0.2-0.4-0.5-0.6-0.9-0.9c-0.4-0.2-0.8-0.3-1.3-0.5c-0.5-0.1-1-0.2-1.4-0.2V60h12.1v1.5c-0.4,0-0.9,0.1-1.4,0.2
		c-0.6,0.1-1,0.2-1.2,0.3c-0.5,0.2-0.8,0.4-0.9,0.8c-0.2,0.4-0.2,0.8-0.2,1.3v21.1c0,0.5,0.1,0.9,0.2,1.2c0.2,0.3,0.5,0.6,0.9,0.9
		c0.2,0.1,0.6,0.2,1.2,0.4c0.6,0.1,1.1,0.2,1.4,0.2V89.2z"/>
	<path d="M285.9,61.4c-0.4,0-0.9,0.1-1.7,0.2c-0.7,0.2-1.3,0.4-1.8,0.7c-0.5,0.3-0.8,1-1,2c-0.2,1-0.3,2.2-0.3,3.6v12.7
		c0,1.6-0.3,3-1,4.2c-0.7,1.2-1.6,2.2-2.7,2.9c-1.1,0.7-2.2,1.3-3.4,1.6c-1.2,0.3-2.4,0.5-3.4,0.5c-1.8,0-3.3-0.2-4.7-0.7
		c-1.4-0.5-2.5-1.1-3.5-1.9c-0.9-0.8-1.6-1.7-2.1-2.7c-0.5-1-0.7-2.1-0.7-3.2V64.2c0-0.5-0.1-0.9-0.2-1.2c-0.2-0.3-0.5-0.6-1-0.9
		c-0.3-0.2-0.8-0.3-1.3-0.5c-0.5-0.1-1-0.2-1.3-0.2V60h12.2v1.5c-0.4,0-0.9,0.1-1.5,0.2c-0.6,0.1-1,0.2-1.3,0.3
		c-0.5,0.2-0.8,0.4-0.9,0.8c-0.2,0.4-0.2,0.8-0.2,1.3v16.1c0,0.8,0.1,1.6,0.3,2.5c0.2,0.9,0.5,1.7,1,2.4c0.5,0.8,1.3,1.4,2.2,1.9
		c0.9,0.5,2.2,0.7,3.8,0.7c1.5,0,2.8-0.2,3.8-0.7c1-0.5,1.8-1.1,2.4-1.9c0.6-0.7,1-1.5,1.2-2.3s0.3-1.6,0.3-2.4v-12
		c0-1.5-0.1-2.8-0.3-3.7c-0.2-1-0.5-1.6-1-1.9c-0.5-0.3-1.1-0.6-2-0.8c-0.8-0.2-1.5-0.3-1.9-0.3V60h11.9V61.4z"/>
	<path d="M315.7,89.2h-7.9c-1.7-2.7-3.3-5.1-4.7-7.1c-1.4-2-2.9-4-4.6-6.2h-3v9.3c0,0.5,0.1,0.9,0.2,1.3c0.2,0.4,0.5,0.6,1,0.8
		c0.2,0.1,0.7,0.2,1.3,0.3c0.6,0.1,1.1,0.1,1.6,0.1v1.5h-12.4v-1.5c0.3,0,0.8-0.1,1.4-0.1c0.6-0.1,1.1-0.2,1.3-0.3
		c0.4-0.2,0.7-0.4,0.9-0.8c0.2-0.3,0.3-0.8,0.3-1.3V64.1c0-0.5-0.1-0.9-0.2-1.3s-0.5-0.7-1-0.8c-0.3-0.1-0.8-0.2-1.3-0.3
		c-0.5-0.1-1-0.2-1.4-0.2V60h13.5c1.2,0,2.4,0.1,3.5,0.4c1.1,0.3,2.1,0.7,2.9,1.2c0.9,0.5,1.5,1.3,2,2.2c0.5,0.9,0.8,2,0.8,3.2
		c0,1.1-0.2,2.1-0.5,3c-0.3,0.9-0.9,1.6-1.5,2.2c-0.6,0.6-1.4,1.1-2.2,1.5c-0.9,0.4-1.8,0.8-2.9,1.1c1.4,1.9,2.6,3.5,3.6,4.8
		c1,1.3,2.1,2.9,3.5,4.8c0.6,0.8,1.2,1.4,1.6,1.8c0.5,0.4,1,0.7,1.5,1c0.4,0.2,0.8,0.3,1.3,0.4c0.5,0.1,1,0.2,1.3,0.2V89.2z
		 M304.9,67.4c0-1.8-0.5-3.2-1.5-4.2c-1-1-2.5-1.6-4.3-1.6h-3.5v12.5h2.7c1.9,0,3.5-0.6,4.7-1.8C304.3,71.2,304.9,69.5,304.9,67.4z"
		/>
	<path d="M327.7,89.9c-1.7,0-3.4-0.3-5-1c-1.6-0.7-3-1.7-4.2-3c-1.2-1.3-2.2-2.9-2.9-4.7c-0.7-1.9-1.1-4-1.1-6.3
		c0-2.3,0.4-4.5,1.1-6.4s1.7-3.5,3-4.9c1.2-1.4,2.7-2.4,4.4-3.2c1.7-0.7,3.5-1.1,5.5-1.1c1.4,0,2.7,0.2,3.9,0.5
		c1.2,0.4,2.3,0.9,3.3,1.5l0.8-1.4h1.6l0.2,10.4h-1.7c-0.2-1-0.5-2.1-1-3.3c-0.4-1.2-1-2.2-1.5-3c-0.7-0.9-1.4-1.7-2.3-2.2
		c-0.9-0.5-1.9-0.8-3.1-0.8c-1.3,0-2.6,0.3-3.7,0.9c-1.1,0.6-2.1,1.5-3,2.6c-0.8,1.1-1.4,2.5-1.9,4.2c-0.5,1.7-0.7,3.6-0.7,5.7
		c0,1.9,0.2,3.6,0.7,5.1c0.5,1.6,1.1,2.9,2,4.1c0.9,1.2,1.9,2.1,3.1,2.7c1.2,0.7,2.5,1,4,1c1.1,0,2.1-0.2,3.1-0.5
		c0.9-0.3,1.7-0.8,2.4-1.4c0.7-0.6,1.3-1.3,1.8-2.1s0.9-1.6,1.3-2.5l1.5,0.7c-1.2,2.9-2.7,5-4.7,6.2
		C332.7,89.3,330.4,89.9,327.7,89.9z"/>
	<path d="M371.2,89.2h-12.1v-1.5c0.3,0,0.8-0.1,1.4-0.1c0.6-0.1,1.1-0.1,1.3-0.2c0.4-0.2,0.7-0.4,0.9-0.8c0.2-0.3,0.3-0.8,0.3-1.3
		V74.9h-13.7v10.2c0,0.5,0.1,0.9,0.2,1.2s0.5,0.6,0.9,0.9c0.2,0.1,0.6,0.2,1.2,0.4c0.6,0.1,1.1,0.2,1.4,0.2v1.5H341v-1.5
		c0.3,0,0.8-0.1,1.4-0.1c0.6-0.1,1.1-0.1,1.3-0.2c0.4-0.2,0.7-0.4,0.9-0.8c0.2-0.3,0.3-0.8,0.3-1.3V64.2c0-0.4-0.1-0.8-0.3-1.2
		c-0.2-0.4-0.5-0.6-0.9-0.9c-0.4-0.2-0.8-0.3-1.3-0.5c-0.5-0.1-1-0.2-1.4-0.2V60h12.1v1.5c-0.4,0-0.9,0.1-1.4,0.2
		c-0.6,0.1-1,0.2-1.2,0.3c-0.5,0.2-0.8,0.4-0.9,0.8c-0.2,0.4-0.2,0.8-0.2,1.3v9.1H363v-8.9c0-0.4-0.1-0.8-0.3-1.2
		c-0.2-0.4-0.5-0.6-0.9-0.9c-0.4-0.2-0.8-0.3-1.3-0.5c-0.5-0.1-1-0.2-1.4-0.2V60h12.1v1.5c-0.4,0-0.9,0.1-1.4,0.2
		c-0.6,0.1-1,0.2-1.2,0.3c-0.5,0.2-0.8,0.4-0.9,0.8c-0.2,0.4-0.2,0.8-0.2,1.3v21.1c0,0.5,0.1,0.9,0.2,1.2c0.2,0.3,0.5,0.6,0.9,0.9
		c0.2,0.1,0.6,0.2,1.2,0.4c0.6,0.1,1.1,0.2,1.4,0.2V89.2z"/>
</g>
</svg>
