<?xml version="1.0" encoding="utf-8"?>
<!-- Generator: Adobe Illustrator 27.0.0, SVG Export Plug-In . SVG Version: 6.00 Build 0)  -->
<svg version="1.1" id="Layer_1" xmlns="http://www.w3.org/2000/svg" xmlns:xlink="http://www.w3.org/1999/xlink" x="0px" y="0px"
	 viewBox="0 0 500 500" style="enable-background:new 0 0 500 500;" xml:space="preserve">
<g>
	<path d="M304.4,224.2l-42.2-91.6h-20.8l6.3,13.9l-17.5,38.2l-0.1,0.1c-1.8,0.5-3.6,1.1-5.2,1.9c-5.1,1.8-9.6,4.6-13.7,8.5
		c-5.1,5.1-9,11.6-11.2,18.3c-1.2,4-2.3,8.1-1.4,12.3c1,4.1,4.8,7,9,5.7c1.1-0.3,2-0.8,3-1.5c2.5-1.6,4.4-4.2,6-6.6
		c2.3-3.1,4.4-6.6,6.3-10c0.3-0.5,0.5-1,0.8-1.5c4-7.1,7.4-14.5,10.2-22c3-0.7,6.3-1,9.7-1c7.5,0,15.6,1.6,23.5,5.2
		c1.1,0.5,2.2,1.1,3.3,1.6c0,0,0,0,0.1,0l16.4,35.4h10.1h6.1h11.3L304.4,224.2z M209.4,223c-0.4,0.4-0.7,0.8-1.1,1.2
		c-0.3,0.3-0.4,0.4-0.7,0.7c-1.6,1.2-3,0.5-3-1.6c0-1.1,0.1-2.2,0.3-3c0.3-1.8,0.8-3.6,1.2-5.2c0.1-0.3,0.1-0.5,0.3-0.8
		c1.4-4.1,3.1-7.2,6-11.2c2.5-3.4,5.7-6.1,9.4-8.3c1.5-0.8,3-1.5,4.6-2l-0.4,1.1c-1.8,4.2-3.8,8.5-6,12.7c-2,4-4.2,8.1-6.8,11.7
		C212,220,210.7,221.5,209.4,223z M237.2,183.4l13.9-30.2l13.4,29.2l2.2,4.8C256.6,183.5,246.4,182.3,237.2,183.4z"/>
	<g>
		<g>
			<path d="M175.3,313.1h-17.5v-2.1c1.6-0.1,2.9-0.3,3.9-0.6c1-0.3,1.6-0.7,1.6-1.1c0-0.1,0-0.4,0-0.7c0-0.3-0.1-0.4-0.1-0.7
				l-3.4-9.3h-14.9c-0.6,1.4-1,2.6-1.3,3.6s-0.7,2-0.9,2.9c-0.3,0.9-0.4,1.6-0.6,2c-0.1,0.6-0.1,1-0.1,1.3c0,0.7,0.6,1.4,1.9,1.9
				c1.3,0.4,2.6,0.7,4.2,0.7v2.1h-15.7v-2.1c0.6,0,1.1-0.1,1.9-0.3c0.7-0.1,1.4-0.4,1.9-0.7c0.7-0.6,1.4-1.1,1.9-1.7
				c0.4-0.6,0.9-1.4,1.3-2.4c2.1-5.3,4.4-11.2,7-17.7c2.6-6.6,4.7-12.3,6.7-17.5h2.3l13.9,36.1c0.3,0.7,0.6,1.4,1,1.9
				c0.4,0.4,0.9,1,1.6,1.4c0.4,0.3,1,0.6,1.7,0.7c0.7,0.1,1.3,0.3,1.9,0.3v2.3H175.3z M158.4,295.9l-6.3-16.2l-6.3,16.2H158.4z"/>
			<path d="M206.6,282.6h-2c-0.1-0.7-0.4-1.6-1-2.6c-0.4-1-1-1.9-1.6-2.7s-1.3-1.7-2-2.4c-0.7-0.7-1.4-1-2-1.1
				c-0.6-0.1-1.4-0.1-2.3-0.1c-0.9,0-1.7,0-2.6,0h-1.7V307c0,0.7,0.1,1.3,0.4,1.7c0.3,0.6,0.7,1,1.4,1.3c0.3,0.1,1.1,0.3,2.3,0.6
				c1.1,0.3,2,0.4,2.6,0.4v2.1h-19.6V311c0.6,0,1.4-0.1,2.6-0.3s1.9-0.3,2.3-0.4c0.7-0.3,1.1-0.6,1.4-1.1c0.3-0.4,0.4-1.1,0.4-1.9
				v-33.8h-1.7c-0.6,0-1.4,0-2.3,0c-0.9,0-1.7,0.1-2.6,0.1c-0.7,0.1-1.3,0.4-2,1.1c-0.7,0.7-1.3,1.4-1.9,2.4
				c-0.6,0.9-1.1,1.9-1.6,2.9s-0.7,1.9-1,2.4h-2v-11.3h36.5v11.3H206.6z"/>
			<path d="M253.3,313.1H236v-2.1c0.4,0,1.1-0.1,2-0.1c0.9-0.1,1.6-0.1,1.9-0.3c0.6-0.3,1-0.6,1.3-1.1c0.3-0.4,0.4-1.1,0.4-1.9
				v-14.9h-19.6v14.6c0,0.7,0.1,1.3,0.3,1.7c0.3,0.4,0.7,0.9,1.3,1.3c0.3,0.1,0.9,0.3,1.7,0.6c0.9,0.1,1.6,0.3,2,0.3v2.1h-17.3V311
				c0.4,0,1.1-0.1,2-0.1c0.9-0.1,1.6-0.1,1.9-0.3c0.6-0.3,1-0.6,1.3-1.1c0.3-0.4,0.4-1.1,0.4-1.9v-30.2c0-0.6-0.1-1.1-0.4-1.7
				c-0.3-0.6-0.7-0.9-1.3-1.3c-0.6-0.3-1.1-0.4-1.9-0.7c-0.7-0.1-1.4-0.3-2-0.3v-2.1h17.3v2.1c-0.6,0-1.3,0.1-2,0.3
				c-0.9,0.1-1.4,0.3-1.7,0.4c-0.7,0.3-1.1,0.6-1.3,1.1c-0.3,0.6-0.3,1.1-0.3,1.9v13h19.6v-12.7c0-0.6-0.1-1.1-0.4-1.7
				c-0.3-0.6-0.7-0.9-1.3-1.3c-0.6-0.3-1.1-0.4-1.9-0.7c-0.7-0.1-1.4-0.3-2-0.3v-2.1h17.3v2.1c-0.6,0-1.3,0.1-2,0.3
				c-0.9,0.1-1.4,0.3-1.7,0.4c-0.7,0.3-1.1,0.6-1.3,1.1c-0.3,0.6-0.3,1.1-0.3,1.9v30.2c0,0.7,0.1,1.3,0.3,1.7
				c0.3,0.4,0.7,0.9,1.3,1.3c0.3,0.1,0.9,0.3,1.7,0.6c0.9,0.1,1.6,0.3,2,0.3L253.3,313.1L253.3,313.1z"/>
			<path d="M292.9,300.6l-0.9,12.3h-34.8v-2.1c0.6,0,1.4-0.1,2.3-0.3c1-0.1,1.6-0.3,1.9-0.4c0.6-0.3,1-0.7,1.3-1.1s0.4-1,0.4-1.9
				V277c0-0.7-0.1-1.3-0.3-1.7c-0.3-0.6-0.7-0.9-1.3-1.3c-0.6-0.3-1.3-0.4-2.1-0.7c-0.9-0.1-1.6-0.3-2.1-0.3v-2.1h32.3v10h-2.1
				c-0.4-1.4-1.3-3.1-2.6-4.7c-1.3-1.7-2.6-2.6-3.7-2.7c-0.6-0.1-1.3-0.1-2.1-0.1s-1.9,0-2.9,0h-6.6v16.6h4.7c1.6,0,2.6-0.1,3.3-0.4
				c0.7-0.3,1.3-0.7,1.9-1.4c0.4-0.6,0.9-1.3,1.1-2.3c0.3-1,0.6-1.9,0.6-2.7h2.1v16.3h-2.1c-0.1-1-0.3-2-0.6-3
				c-0.3-1-0.7-1.9-1.1-2.3c-0.6-0.7-1.3-1.3-2.1-1.6c-0.7-0.3-1.9-0.3-3.1-0.3h-4.7v12.6c0,1.3,0.1,2.3,0.3,3s0.6,1.3,1,1.7
				c0.6,0.4,1.1,0.6,2.1,0.7c0.9,0.1,2.1,0.1,3.7,0.1c0.7,0,1.6,0,2.6,0s2,0,2.7-0.1c0.7-0.1,1.6-0.3,2.3-0.4
				c0.9-0.1,1.4-0.4,1.7-0.9c0.9-1,1.9-2.4,2.9-4.3c1-1.9,1.6-3.3,1.9-4.3h2.3V300.6z"/>
			<path d="M340.9,273.4c-0.6,0-1.4,0.1-2.6,0.4c-1.1,0.3-2,0.6-2.4,0.9c-0.7,0.4-1.1,1.4-1.4,2.9c-0.3,1.4-0.4,3.1-0.4,5.3v30.6
				h-2.6l-25.3-34.2v21.6c0,2.4,0.1,4.3,0.4,5.6s0.7,2.3,1.4,2.7c0.4,0.4,1.4,0.9,2.9,1.1s2.3,0.6,2.9,0.6v2.1h-17.2v-2.1
				c0.6,0,1.4-0.3,2.7-0.6c1.3-0.3,2-0.7,2.3-0.9c0.7-0.6,1.1-1.4,1.4-2.6s0.4-3,0.4-5.7v-20.6c0-0.9-0.1-1.9-0.4-2.7
				s-0.7-1.6-1.3-2.1c-0.7-0.7-1.7-1.1-2.9-1.7c-1.1-0.4-2.1-0.7-2.9-0.7v-2.1h11.9l23.5,31.9v-19.9c0-2.4-0.1-4.3-0.4-5.6
				s-0.7-2.1-1.3-2.6c-0.6-0.4-1.4-0.7-2.7-1.1s-2.1-0.6-2.9-0.6v-2.1h17v2.3H340.9z"/>
			<path d="M368.9,293.9c0.9,1,1.6,2,2,3.3c0.4,1.1,0.6,2.6,0.6,4.2c0,3.7-1.4,6.7-4.2,9.2c-2.7,2.4-6.2,3.6-10.2,3.6
				c-1.9,0-3.7-0.3-5.6-0.9c-1.9-0.6-3.4-1.3-4.9-2.1l-1.3,2.1h-2.3l-0.4-14.3h2.4c0.4,1.7,1,3.4,1.7,4.7c0.7,1.4,1.6,2.7,2.6,4
				c1,1.1,2.1,2.1,3.6,2.7c1.4,0.7,3,1,4.7,1c1.3,0,2.6-0.1,3.6-0.6c1-0.3,1.9-0.9,2.4-1.6c0.6-0.7,1.1-1.4,1.4-2.3
				c0.3-0.9,0.4-1.9,0.4-3c0-1.7-0.4-3.3-1.4-4.7c-1-1.4-2.3-2.6-4.2-3.3c-1.3-0.6-2.7-1-4.4-1.7c-1.7-0.6-3-1.1-4.3-1.7
				c-2.3-1-4.2-2.4-5.4-4.2c-1.3-1.7-2-4-2-6.7c0-1.6,0.3-3,1-4.4c0.7-1.4,1.6-2.6,2.7-3.7c1.1-1,2.4-1.9,4-2.4
				c1.6-0.6,3.1-0.9,4.9-0.9c1.9,0,3.6,0.3,5.2,0.9c1.6,0.6,2.9,1.3,4.2,2l1.1-2h2.3l0.3,13.9h-2.4c-0.4-1.6-0.9-3.1-1.4-4.6
				c-0.6-1.4-1.3-2.7-2.1-4c-0.9-1.1-1.9-2-3.1-2.7c-1.3-0.7-2.7-1-4.4-1c-1.9,0-3.4,0.6-4.7,1.9c-1.3,1.1-2,2.7-2,4.4
				c0,1.9,0.4,3.3,1.3,4.4c0.9,1.1,2,2.1,3.7,2.9c1.4,0.7,2.9,1.3,4.3,1.7c1.4,0.4,2.7,1,4,1.6c1.1,0.6,2.3,1.1,3.4,1.7
				C367.1,292.3,368.1,293,368.9,293.9z"/>
		</g>
		<g>
			<path d="M149.7,364.9c-2.3,0-4.6-0.4-6.8-1.4c-2.2-1-4.1-2.3-5.7-4.1c-1.6-1.8-3-4-4-6.4c-1-2.6-1.5-5.5-1.5-8.6
				c0-3.1,0.5-6.1,1.5-8.7c1-2.6,2.3-4.8,4.1-6.7c1.6-1.9,3.7-3.3,6-4.4c2.3-1,4.8-1.5,7.5-1.5c1.9,0,3.7,0.3,5.3,0.7
				c1.6,0.5,3.1,1.2,4.5,2l1.1-1.9h2.2l0.3,14.2h-2.3c-0.3-1.4-0.7-2.9-1.4-4.5c-0.5-1.6-1.4-3-2-4.1c-1-1.2-1.9-2.3-3.1-3
				c-1.2-0.7-2.6-1.1-4.2-1.1c-1.8,0-3.6,0.4-5.1,1.2c-1.5,0.8-2.9,2-4.1,3.6c-1.1,1.5-1.9,3.4-2.6,5.7c-0.7,2.3-1,4.9-1,7.8
				c0,2.6,0.3,4.9,1,7c0.7,2.2,1.5,4,2.7,5.6c1.2,1.6,2.6,2.9,4.2,3.7c1.6,1,3.4,1.4,5.5,1.4c1.5,0,2.9-0.3,4.2-0.7
				c1.2-0.4,2.3-1.1,3.3-1.9c1-0.8,1.8-1.8,2.5-2.9c0.7-1.1,1.2-2.2,1.8-3.4l2,1c-1.6,4-3.7,6.8-6.4,8.5
				C156.5,363.9,153.4,364.9,149.7,364.9z"/>
			<path d="M210.5,363.9h-16.5v-2c0.4,0,1.1-0.1,1.9-0.1c0.8-0.1,1.5-0.1,1.8-0.3c0.5-0.3,1-0.5,1.2-1.1c0.3-0.4,0.4-1.1,0.4-1.8
				v-14.2h-18.7v13.9c0,0.7,0.1,1.2,0.3,1.6c0.3,0.4,0.7,0.8,1.2,1.2c0.3,0.1,0.8,0.3,1.6,0.5c0.8,0.1,1.5,0.3,1.9,0.3v2h-16.5v-2
				c0.4,0,1.1-0.1,1.9-0.1c0.8-0.1,1.5-0.1,1.8-0.3c0.5-0.3,1-0.5,1.2-1.1c0.3-0.4,0.4-1.1,0.4-1.8v-28.8c0-0.5-0.1-1.1-0.4-1.6
				c-0.3-0.5-0.7-0.8-1.2-1.2c-0.5-0.3-1.1-0.4-1.8-0.7c-0.7-0.1-1.4-0.3-1.9-0.3v-2h16.5v2c-0.5,0-1.2,0.1-1.9,0.3
				c-0.8,0.1-1.4,0.3-1.6,0.4c-0.7,0.3-1.1,0.5-1.2,1.1c-0.3,0.5-0.3,1.1-0.3,1.8v12.4h18.7v-12.2c0-0.5-0.1-1.1-0.4-1.6
				c-0.3-0.5-0.7-0.8-1.2-1.2c-0.5-0.3-1.1-0.4-1.8-0.7c-0.7-0.1-1.4-0.3-1.9-0.3v-2h16.5v2c-0.5,0-1.2,0.1-1.9,0.3
				c-0.8,0.1-1.4,0.3-1.6,0.4c-0.7,0.3-1.1,0.5-1.2,1.1c-0.3,0.5-0.3,1.1-0.3,1.8v28.8c0,0.7,0.1,1.2,0.3,1.6
				c0.3,0.4,0.7,0.8,1.2,1.2c0.3,0.1,0.8,0.3,1.6,0.5c0.8,0.1,1.5,0.3,1.9,0.3V363.9z"/>
			<path d="M255,325.9c-0.5,0-1.2,0.1-2.3,0.3c-1,0.3-1.8,0.5-2.5,1c-0.7,0.4-1.1,1.4-1.4,2.7c-0.3,1.4-0.4,3-0.4,4.9v17.3
				c0,2.2-0.4,4.1-1.4,5.7c-1,1.6-2.2,3-3.7,4c-1.5,1-3,1.8-4.6,2.2c-1.6,0.4-3.3,0.7-4.6,0.7c-2.5,0-4.5-0.3-6.4-1
				c-1.9-0.7-3.4-1.5-4.8-2.6c-1.2-1.1-2.2-2.3-2.9-3.7c-0.7-1.4-1-2.9-1-4.4v-23.6c0-0.7-0.1-1.2-0.3-1.6c-0.3-0.4-0.7-0.8-1.4-1.2
				c-0.4-0.3-1.1-0.4-1.8-0.7c-0.7-0.1-1.4-0.3-1.8-0.3v-2h16.7v2c-0.5,0-1.2,0.1-2,0.3c-0.8,0.1-1.4,0.3-1.8,0.4
				c-0.7,0.3-1.1,0.5-1.2,1.1c-0.3,0.5-0.3,1.1-0.3,1.8v22.3c0,1.1,0.1,2.2,0.4,3.4c0.3,1.2,0.7,2.3,1.4,3.3c0.7,1.1,1.8,1.9,3,2.6
				c1.2,0.7,3,1,5.2,1c2,0,3.8-0.3,5.2-1c1.4-0.7,2.5-1.5,3.3-2.6c0.8-1,1.4-2,1.6-3.1c0.3-1.1,0.4-2.2,0.4-3.3v-16.4
				c0-2-0.1-3.8-0.4-5.1c-0.3-1.4-0.7-2.2-1.4-2.6c-0.7-0.4-1.5-0.8-2.7-1.1c-1.1-0.3-2-0.4-2.6-0.4v-2H255V325.9z"/>
			<path d="M295.7,363.9H285c-2.3-3.7-4.5-7-6.4-9.7c-1.9-2.7-4-5.5-6.3-8.5h-4.1v12.7c0,0.7,0.1,1.2,0.3,1.8
				c0.3,0.5,0.7,0.8,1.4,1.1c0.3,0.1,1,0.3,1.8,0.4c0.8,0.1,1.5,0.1,2.2,0.1v2h-16.9v-2c0.4,0,1.1-0.1,1.9-0.1
				c0.8-0.1,1.5-0.3,1.8-0.4c0.5-0.3,1-0.5,1.2-1.1c0.3-0.4,0.4-1.1,0.4-1.8v-28.8c0-0.7-0.1-1.2-0.3-1.8c-0.1-0.5-0.7-1-1.4-1.1
				c-0.4-0.1-1.1-0.3-1.8-0.4c-0.7-0.1-1.4-0.3-1.9-0.3v-2h18.4c1.6,0,3.3,0.1,4.8,0.5c1.5,0.4,2.9,1,4,1.6c1.2,0.7,2,1.8,2.7,3
				c0.7,1.2,1.1,2.7,1.1,4.4c0,1.5-0.3,2.9-0.7,4.1c-0.4,1.2-1.2,2.2-2,3s-1.9,1.5-3,2c-1.2,0.5-2.5,1.1-4,1.5
				c1.9,2.6,3.6,4.8,4.9,6.6s2.9,4,4.8,6.6c0.8,1.1,1.6,1.9,2.2,2.5c0.5,0.5,1.4,1,2,1.4c0.5,0.3,1.1,0.4,1.8,0.5
				c0.7,0.1,1.4,0.3,1.8,0.3L295.7,363.9L295.7,363.9z M280.9,334.1c0-2.5-0.7-4.4-2-5.7c-1.4-1.4-3.4-2.2-5.9-2.2h-4.8v17.1h3.7
				c2.6,0,4.8-0.8,6.4-2.5C280.1,339.2,280.9,337,280.9,334.1z"/>
			<path d="M312.1,364.9c-2.3,0-4.6-0.4-6.8-1.4c-2.2-1-4.1-2.3-5.7-4.1s-3-4-4-6.4c-1-2.6-1.5-5.5-1.5-8.6c0-3.1,0.5-6.1,1.5-8.7
				c1-2.6,2.3-4.8,4.1-6.7c1.6-1.9,3.7-3.3,6-4.4c2.3-1,4.8-1.5,7.5-1.5c1.9,0,3.7,0.3,5.3,0.7c1.6,0.5,3.1,1.2,4.5,2l1.1-1.9h2.2
				l0.3,14.2h-2.3c-0.3-1.4-0.7-2.9-1.4-4.5c-0.5-1.6-1.4-3-2-4.1c-1-1.2-1.9-2.3-3.1-3c-1.2-0.7-2.6-1.1-4.2-1.1
				c-1.8,0-3.6,0.4-5.1,1.2c-1.5,0.8-2.9,2-4.1,3.6c-1.1,1.5-1.9,3.4-2.6,5.7c-0.7,2.3-1,4.9-1,7.8c0,2.6,0.3,4.9,1,7
				c0.7,2.2,1.5,4,2.7,5.6s2.6,2.9,4.2,3.7c1.6,1,3.4,1.4,5.5,1.4c1.5,0,2.9-0.3,4.2-0.7c1.2-0.4,2.3-1.1,3.3-1.9
				c1-0.8,1.8-1.8,2.5-2.9c0.7-1.1,1.2-2.2,1.8-3.4l2,1c-1.6,4-3.7,6.8-6.4,8.5C318.9,363.9,315.8,364.9,312.1,364.9z"/>
			<path d="M371.5,363.9H355v-2c0.4,0,1.1-0.1,1.9-0.1c0.8-0.1,1.5-0.1,1.8-0.3c0.5-0.3,1-0.5,1.2-1.1c0.3-0.4,0.4-1.1,0.4-1.8
				v-14.2h-18.7v13.9c0,0.7,0.1,1.2,0.3,1.6c0.3,0.4,0.7,0.8,1.2,1.2c0.3,0.1,0.8,0.3,1.6,0.5c0.8,0.1,1.5,0.3,1.9,0.3v2h-16.5v-2
				c0.4,0,1.1-0.1,1.9-0.1c0.8-0.1,1.5-0.1,1.8-0.3c0.5-0.3,1-0.5,1.2-1.1c0.3-0.4,0.4-1.1,0.4-1.8v-28.8c0-0.5-0.1-1.1-0.4-1.6
				c-0.3-0.5-0.7-0.8-1.2-1.2c-0.5-0.3-1.1-0.4-1.8-0.7c-0.7-0.1-1.4-0.3-1.9-0.3v-2h16.5v2c-0.5,0-1.2,0.1-1.9,0.3
				c-0.8,0.1-1.4,0.3-1.6,0.4c-0.7,0.3-1.1,0.5-1.2,1.1c-0.3,0.5-0.3,1.1-0.3,1.8v12.4h18.7v-12.2c0-0.5-0.1-1.1-0.4-1.6
				c-0.3-0.5-0.7-0.8-1.2-1.2c-0.5-0.3-1.1-0.4-1.8-0.7c-0.7-0.1-1.4-0.3-1.9-0.3v-2h16.5v2c-0.5,0-1.2,0.1-1.9,0.3
				c-0.8,0.1-1.4,0.3-1.6,0.4c-0.7,0.3-1.1,0.5-1.2,1.1c-0.3,0.5-0.3,1.1-0.3,1.8v28.8c0,0.7,0.1,1.2,0.3,1.6
				c0.3,0.4,0.7,0.8,1.2,1.2c0.3,0.1,0.8,0.3,1.6,0.5c0.8,0.1,1.5,0.3,1.9,0.3V363.9z"/>
		</g>
	</g>
	<path d="M304.4,224.2l-42.2-91.6h-20.8l6.3,13.9l-17.5,38.2l-0.1,0.1c-1.8,0.5-3.6,1.1-5.2,1.9c-5.1,1.8-9.6,4.6-13.7,8.5
		c-5.1,5.1-9,11.6-11.2,18.3c-1.2,4-2.3,8.1-1.4,12.3c1,4.1,4.8,7,9,5.7c1.1-0.3,2-0.8,3-1.5c2.5-1.6,4.4-4.2,6-6.6
		c2.3-3.1,4.4-6.6,6.3-10c0.3-0.5,0.5-1,0.8-1.5c4-7.1,7.4-14.5,10.2-22c3-0.7,6.3-1,9.7-1c7.5,0,15.6,1.6,23.5,5.2
		c1.1,0.5,2.2,1.1,3.3,1.6c0,0,0,0,0.1,0l16.4,35.4h10.1h6.1h11.3L304.4,224.2z M209.3,223c-0.4,0.4-0.7,0.8-1.1,1.2
		c-0.3,0.3-0.4,0.4-0.7,0.7c-1.6,1.2-3,0.5-3-1.6c0-1.1,0.1-2.2,0.3-3c0.3-1.8,0.8-3.6,1.2-5.2c0.1-0.3,0.1-0.5,0.3-0.8
		c1.4-4.1,3.1-7.2,6-11.2c2.5-3.4,5.7-6.1,9.4-8.3c1.5-0.8,3-1.5,4.6-2l-0.4,1.1c-1.8,4.2-3.8,8.5-6,12.7c-2,4-4.2,8.1-6.8,11.7
		C211.9,220,210.7,221.5,209.3,223z M237.2,183.4l13.9-30.2l13.4,29.2l2.2,4.8C256.6,183.5,246.3,182.3,237.2,183.4z"/>
</g>
</svg>
