<?xml version="1.0" encoding="utf-8"?>
<!-- Generator: Adobe Illustrator 27.0.0, SVG Export Plug-In . SVG Version: 6.00 Build 0)  -->
<svg version="1.1" id="Layer_1" xmlns="http://www.w3.org/2000/svg" xmlns:xlink="http://www.w3.org/1999/xlink" x="0px" y="0px"
	 viewBox="0 0 275.2 150" style="enable-background:new 0 0 275.2 150;" xml:space="preserve">
<style type="text/css">
	.st0{fill:#242423;}
</style>
<path class="st0" d="M214,75l0.1-1.3c0,0-0.1,0-0.1,0v0h-0.1l0,0c-0.1,0-8.1,0.8-14.5-5c-7-6.3-6.4-13.5-6.4-13.8l-2.6-0.3
	c0,0.4-0.8,8.7,7.3,16c1.4,1.3,2.9,2.3,4.3,3H48.9v2.7h153.1c-1.5,0.8-2.9,1.8-4.3,3c-8,7.3-7.3,15.6-7.3,16l2.6-0.3
	c0-0.3-0.6-7.4,6.4-13.8c6.4-5.8,14.4-5,14.5-5l0,0h0.1v0c0.1,0,0.1,0,0.1,0L214,75z"/>
</svg>
